# Blender v2.82 (sub 7) OBJ File: 'untitled.blend'
# www.blender.org
mtllib grass1.mtl
o Grass_1_Plane.000
v 6.923563 1.704081 13.215230
v 6.901999 2.085234 13.287746
v 6.923563 1.704081 13.074688
v 6.901999 2.085234 13.163878
v 6.959668 2.261896 13.248186
v 6.959668 2.261896 13.167121
v 6.883245 1.894658 13.251489
v 6.883245 1.894658 13.119284
v 6.934520 1.706399 13.215230
v 6.912962 2.082944 13.287746
v 6.934520 1.706399 13.074688
v 6.912978 2.083022 13.163878
v 6.970315 2.258420 13.248186
v 6.970315 2.258420 13.167121
v 6.894438 1.895071 13.251489
v 6.894412 1.895525 13.119284
v 6.981219 1.704741 13.076964
v 6.975170 1.919581 13.098378
v 6.978500 1.703421 12.988119
v 6.972448 1.918258 13.009409
v 6.964592 2.012574 13.022529
v 6.962872 2.011738 12.966291
v 6.999110 1.831580 13.117353
v 6.996141 1.830137 13.020308
v 6.992318 1.703277 13.076646
v 6.986138 1.921815 13.098010
v 6.989600 1.701956 12.987801
v 6.983499 1.920040 13.009045
v 6.975744 2.013552 13.022173
v 6.974023 2.012716 12.965936
v 7.010274 1.832398 13.117000
v 7.007318 1.830754 13.019958
v 6.828721 1.704085 13.297196
v 6.839738 1.900611 13.299083
v 6.796134 1.704085 13.367081
v 6.811016 1.900611 13.360677
v 6.905716 2.010133 13.329851
v 6.886919 2.010133 13.370161
v 6.838341 1.808646 13.328662
v 6.807687 1.808646 13.394402
v 6.818789 1.706393 13.292564
v 6.829955 1.903595 13.294521
v 6.786201 1.706393 13.362450
v 6.801022 1.902567 13.356016
v 6.897263 2.016333 13.325909
v 6.878466 2.016333 13.366219
v 6.828199 1.809095 13.323933
v 6.797550 1.809232 13.389674
vt 0.198792 0.569107
vt 0.348759 0.294558
vt 0.364730 0.602439
vt 0.282316 0.000000
vt 0.384066 0.020439
vt 0.207665 0.877343
vt 0.384066 0.912777
vt 0.005227 0.339263
vt 0.154964 0.610603
vt 0.000000 0.641527
vt 0.091880 0.905082
vt 0.017482 0.035224
vt 0.170690 0.306837
vt 0.523076 0.718969
vt 0.509247 0.496875
vt 0.523076 0.496776
vt 0.821472 0.530961
vt 0.821604 0.262383
vt 0.835368 0.529758
vt 0.794106 0.895415
vt 0.743448 0.589980
vt 0.807678 0.890605
vt 0.537269 0.496858
vt 0.551499 0.624592
vt 0.537269 0.624675
vt 0.793888 0.000000
vt 0.753372 0.285567
vt 0.739296 0.283292
vt 0.867426 0.825496
vt 0.881040 0.822457
vt 0.867588 0.000000
vt 0.807678 0.259498
vt 0.729460 0.592543
vt 0.399003 0.160061
vt 0.507098 0.293164
vt 0.384066 0.301530
vt 0.511796 0.152391
vt 0.486492 0.004848
vt 0.557789 0.000000
vt 0.445153 0.496776
vt 0.557789 0.489116
vt 0.680272 0.207259
vt 0.571463 0.342532
vt 0.557789 0.200123
vt 0.683782 0.348654
vt 0.658490 0.494693
vt 0.617340 0.000000
vt 0.523076 0.496776
vt 0.537269 0.637314
vt 0.523076 0.637249
vt 0.957801 0.814164
vt 0.968562 0.668739
vt 0.982514 0.671754
vt 0.963024 0.205857
vt 0.986172 0.000000
vt 1.000000 0.003641
vt 0.536515 0.637899
vt 0.523076 0.725863
vt 0.523076 0.637314
vt 1.000000 0.484827
vt 0.974006 0.346244
vt 0.988010 0.344800
vt 0.999589 0.493226
vt 0.985528 0.492104
vt 0.985826 0.984635
vt 0.943739 0.813281
vt 0.948947 0.205463
vt 0.471110 0.662512
vt 0.427692 0.807795
vt 0.384066 0.662592
vt 0.509247 0.807720
vt 0.425541 0.982170
vt 0.416714 0.496861
vt 0.509247 0.496776
vt 0.643257 0.825570
vt 0.601649 0.676644
vt 0.681623 0.676501
vt 0.594474 0.499012
vt 0.590767 0.986299
vt 0.681623 0.987976
vt 0.551334 0.746629
vt 0.537269 0.624675
vt 0.551334 0.624690
vt 0.894500 0.695654
vt 0.912380 0.833274
vt 0.881040 0.695848
vt 0.948947 0.000145
vt 0.920437 0.142590
vt 0.934944 0.000000
vt 0.522766 0.719273
vt 0.509247 0.789358
vt 0.509247 0.719068
vt 0.895000 0.292389
vt 0.935530 0.492104
vt 0.881040 0.291718
vt 0.930948 0.492104
vt 0.943739 0.497435
vt 0.943739 0.998705
vt 0.925487 0.829056
vt 0.934102 0.145274
vt 0.193285 0.263328
vt 0.193285 0.884764
vt 0.193285 0.000000
vt 0.509247 0.719068
vt 0.551499 0.496776
vt 0.807678 0.004288
vt 0.881040 0.005684
vt 0.729460 0.499012
vt 0.729460 0.006824
vt 0.537269 0.496841
vt 0.536515 0.726448
vt 0.985929 0.485001
vt 0.999589 0.982089
vt 0.478915 0.982121
vt 0.557789 0.823775
vt 0.646880 0.499980
vt 0.537269 0.746613
vt 0.522766 0.789563
vt 0.948947 0.486156
vt 0.930305 1.000000
vn -0.9952 0.0979 0.0000
vn -0.9506 0.3103 0.0000
vn -0.9783 -0.2070 0.0000
vn 0.9952 -0.0983 -0.0003
vn 0.9952 -0.0982 -0.0002
vn 0.9952 -0.0981 0.0001
vn 0.9505 -0.3107 -0.0001
vn 0.9505 -0.3107 -0.0000
vn 0.9782 0.2075 0.0002
vn 0.9782 0.2076 0.0003
vn 0.9782 0.2077 0.0005
vn 0.2069 -0.9784 0.0000
vn 0.2070 -0.9783 0.0000
vn -0.0372 -0.1857 0.9819
vn 0.0056 -0.1875 0.9823
vn -0.0390 -0.1857 0.9818
vn -0.0455 0.2201 -0.9744
vn -0.0184 0.2242 -0.9744
vn -0.0466 0.2199 -0.9744
vn 0.3103 0.9506 0.0000
vn 0.0055 0.0167 -0.9998
vn 0.0034 0.0172 -0.9998
vn 0.0641 0.1994 0.9778
vn 0.0437 0.2048 0.9778
vn 0.0649 0.1992 0.9778
vn 0.0371 -0.1809 0.9828
vn 0.0079 -0.1853 0.9826
vn 0.0069 -0.1855 0.9826
vn 0.0433 0.2270 -0.9729
vn -0.0159 0.2294 -0.9732
vn -0.0180 0.2295 -0.9732
vn -0.9662 -0.2557 0.0334
vn -0.9957 -0.0873 0.0318
vn -0.9957 -0.0874 0.0318
vn -0.9910 0.1308 0.0284
vn -0.9910 0.1307 0.0284
vn 0.9667 0.2538 -0.0337
vn 0.9667 0.2538 -0.0338
vn 0.9957 0.0870 -0.0314
vn 0.9957 0.0870 -0.0316
vn 0.9957 0.0870 -0.0313
vn 0.9912 -0.1292 -0.0283
vn 0.9912 -0.1292 -0.0282
vn 0.9912 -0.1291 -0.0280
vn -0.1302 -0.9913 0.0187
vn -0.1303 -0.9913 0.0187
vn 0.0136 0.2115 0.9773
vn -0.0075 0.2085 0.9780
vn -0.0093 0.2083 0.9780
vn -0.0416 0.2476 -0.9680
vn 0.0021 0.2457 -0.9693
vn 0.0047 0.2456 -0.9694
vn -0.0878 0.9961 -0.0121
vn 0.0099 -0.4207 -0.9072
vn 0.0352 -0.4158 -0.9088
vn 0.0371 -0.4154 -0.9089
vn -0.0351 0.6340 0.7725
vn -0.0967 0.6228 0.7764
vn -0.0310 0.6347 0.7721
vn 0.0495 -0.3044 0.9512
vn -0.0092 -0.3020 0.9533
vn 0.0526 -0.3045 0.9511
vn -0.0234 -0.1275 -0.9916
vn -0.0130 -0.1261 -0.9919
vn -0.0243 -0.1276 -0.9915
vn 0.8996 0.1213 0.4195
vn 0.7548 -0.5536 0.3520
vn 0.8869 -0.2060 0.4135
vn -0.8994 -0.1169 -0.4213
vn -0.8989 -0.1163 -0.4225
vn -0.8981 -0.1154 -0.4245
vn -0.7577 0.5497 -0.3517
vn -0.7594 0.5489 -0.3493
vn -0.7600 0.5486 -0.3484
vn -0.8865 0.2074 -0.4135
vn -0.8865 0.2074 -0.4136
vn -0.8866 0.2075 -0.4134
vn -0.1868 -0.9785 -0.0871
vn -0.1867 -0.9785 -0.0871
vn 0.3357 -0.2860 -0.8975
vn 0.3905 -0.2868 -0.8748
vn 0.3319 -0.2859 -0.8989
vn -0.4482 -0.1820 0.8752
vn -0.4256 -0.1846 0.8859
vn -0.4499 -0.1818 0.8744
vn 0.5017 0.8328 0.2339
vn -0.3836 0.1803 0.9057
vn -0.3309 0.1482 0.9319
vn -0.3861 0.1818 0.9044
vn 0.4227 0.0000 -0.9063
vn 0.4226 -0.0000 -0.9063
vn 0.4517 0.2222 -0.8641
vn 0.4219 0.2257 -0.8781
vn 0.4199 0.2259 -0.8790
vn -0.3475 0.3298 0.8778
vn -0.3807 0.3302 0.8638
vn -0.3831 0.3302 0.8627
vn 0.9951 -0.0984 -0.0005
vn 0.9782 0.2074 0.0000
vn 0.0071 -0.1875 0.9822
vn -0.0174 0.2243 -0.9744
vn 0.0429 0.2050 0.9778
vn 0.0382 -0.1807 0.9828
vn 0.0457 0.2269 -0.9728
vn -0.9662 -0.2556 0.0334
vn 0.9957 0.0870 -0.0318
vn 0.9912 -0.1293 -0.0284
vn 0.0153 0.2117 0.9772
vn -0.0439 0.2477 -0.9678
vn 0.0079 -0.4210 -0.9070
vn -0.1006 0.6220 0.7765
vn -0.0126 -0.3018 0.9533
vn -0.0121 -0.1260 -0.9920
vn 0.8869 -0.2061 0.4135
vn -0.9001 -0.1178 -0.4194
vn -0.7568 0.5501 -0.3529
vn -0.8865 0.2073 -0.4137
vn 0.3944 -0.2868 -0.8730
vn -0.4241 -0.1848 0.8866
vn -0.3280 0.1464 0.9332
vn 0.4538 0.2220 -0.8630
vn -0.3452 0.3297 0.8787
usemtl Green.2
s 1
f 7/1/1 4/2/1 8/3/1
f 4/2/2 5/4/2 6/5/2
f 1/6/3 8/3/3 3/7/3
f 15/8/4 12/9/5 10/10/6
f 12/9/7 13/11/8 10/10/7
f 9/12/9 16/13/10 15/8/11
f 3/14/12 9/15/13 1/16/13
f 2/17/14 15/18/15 10/19/16
f 3/20/17 16/21/18 11/22/19
f 5/23/20 14/24/20 6/25/20
f 6/26/21 12/27/22 4/28/22
f 5/29/23 10/19/24 13/30/25
f 1/31/26 15/18/27 7/32/28
f 4/28/29 16/21/30 8/33/31
f 18/34/32 24/35/32 23/36/32
f 20/37/33 21/38/33 22/39/34
f 17/40/35 24/35/36 19/41/35
f 32/42/37 26/43/37 31/44/38
f 28/45/39 29/46/40 26/43/41
f 25/47/42 32/42/43 31/44/44
f 19/48/45 25/49/46 17/50/46
f 23/51/47 26/52/48 18/53/49
f 24/54/50 27/55/51 19/56/52
f 22/57/53 29/58/53 30/59/53
f 22/60/54 28/61/55 20/62/56
f 21/63/57 26/52/58 29/64/59
f 23/51/60 25/65/61 31/66/62
f 24/54/63 28/61/64 32/67/65
f 39/68/66 36/69/66 40/70/66
f 34/71/67 38/72/67 36/69/67
f 39/68/68 35/73/68 33/74/68
f 47/75/69 44/76/70 42/77/71
f 46/78/72 42/77/73 44/76/74
f 43/79/75 47/75/76 41/80/77
f 35/81/78 41/82/79 33/83/79
f 34/84/80 47/85/81 42/86/82
f 35/87/83 48/88/84 43/89/85
f 38/90/86 45/91/86 46/92/86
f 36/93/87 46/94/88 44/95/89
f 34/84/90 45/96/91 37/97/91
f 33/98/92 47/85/93 39/99/94
f 36/93/95 48/88/96 40/100/97
f 7/1/1 2/101/1 4/2/1
f 4/2/2 2/101/2 5/4/2
f 1/6/3 7/1/3 8/3/3
f 15/8/4 16/13/98 12/9/5
f 12/9/7 14/102/8 13/11/8
f 9/12/9 11/103/99 16/13/10
f 3/14/12 11/104/12 9/15/13
f 2/17/14 7/32/100 15/18/15
f 3/20/17 8/33/101 16/21/18
f 5/23/20 13/105/20 14/24/20
f 6/26/21 14/106/21 12/27/22
f 5/29/23 2/17/102 10/19/24
f 1/31/26 9/107/103 15/18/27
f 4/28/29 12/27/104 16/21/30
f 18/34/32 20/37/105 24/35/32
f 20/37/33 18/34/33 21/38/33
f 17/40/35 23/36/36 24/35/36
f 32/42/37 28/45/37 26/43/37
f 28/45/39 30/108/106 29/46/40
f 25/47/42 27/109/107 32/42/43
f 19/48/45 27/110/45 25/49/46
f 23/51/47 31/66/108 26/52/48
f 24/54/50 32/67/109 27/55/51
f 22/57/53 21/111/53 29/58/53
f 22/60/54 30/112/110 28/61/55
f 21/63/57 18/53/111 26/52/58
f 23/51/60 17/113/112 25/65/61
f 24/54/63 20/62/113 28/61/64
f 39/68/66 34/71/66 36/69/66
f 34/71/67 37/114/67 38/72/67
f 39/68/68 40/70/114 35/73/68
f 47/75/69 48/115/115 44/76/70
f 46/78/72 45/116/116 42/77/73
f 43/79/75 48/115/117 47/75/76
f 35/81/78 43/117/78 41/82/79
f 34/84/80 39/99/118 47/85/81
f 35/87/83 40/100/119 48/88/84
f 38/90/86 37/118/86 45/91/86
f 36/93/87 38/119/120 46/94/88
f 34/84/90 42/86/90 45/96/91
f 33/98/92 41/120/121 47/85/93
f 36/93/95 44/95/122 48/88/96
