# Blender v2.82 (sub 7) OBJ File: 'untitled.blend'
# www.blender.org
mtllib rock2.mtl
o Rock_2_Cube.011
v 12.502616 -7.169284 8.079463
v 11.850096 -5.455989 7.818161
v 12.129888 -7.224642 6.143187
v 12.467967 -5.313704 6.042249
v 13.842790 -7.225556 8.048171
v 14.199267 -5.265596 8.297419
v 14.167588 -7.315151 6.140671
v 14.092405 -5.192196 6.104065
v 13.470486 -7.292232 6.036423
v 12.699288 -7.214123 6.000009
v 13.059785 -5.191210 5.938242
v 13.438526 -5.099772 6.003531
v 12.877885 -7.306253 8.080991
v 13.689164 -7.350755 8.041391
v 13.046366 -5.588629 8.614731
v 12.254862 -5.520826 8.054335
v 11.704978 -6.685032 8.204827
v 11.573994 -6.216430 8.188715
v 12.160135 -5.942630 5.850837
v 11.871284 -6.512120 5.926455
v 14.488009 -5.838076 5.962506
v 14.497025 -6.489490 5.976696
v 14.139233 -6.026475 8.359769
v 14.021381 -6.580720 8.221741
v 12.722248 -6.334100 8.747919
v 12.646563 -6.873274 8.635267
v 11.848693 -6.386034 8.627446
v 11.946680 -6.902262 8.603212
v 12.737906 -5.963451 5.216746
v 12.445410 -6.538072 5.293266
v 13.124510 -5.860325 5.294255
v 13.040776 -6.505455 5.317824
v 12.000378 -7.280575 6.651820
v 12.308307 -7.270029 7.292337
v 11.930988 -5.278698 6.983815
v 12.007401 -5.357203 6.697460
v 14.920701 -7.425936 7.325720
v 14.940857 -7.420637 6.684358
v 14.488009 -5.171409 6.629173
v 14.483719 -5.146554 7.315787
v 13.250328 -5.088297 6.707778
v 13.080056 -5.295800 7.448727
v 12.619298 -5.297668 6.705809
v 12.462847 -5.270921 7.075248
v 12.911602 -7.541196 6.947890
v 12.904263 -7.544809 7.618997
v 13.807524 -7.492802 7.020919
v 13.800184 -7.496415 7.692025
v 15.288539 -6.611798 6.712821
v 15.283026 -6.608260 7.389375
v 15.283161 -5.966189 6.696783
v 15.281242 -5.948575 7.384057
v 11.193196 -6.471479 6.744969
v 11.221398 -6.409197 6.056095
v 11.125460 -5.979740 6.797730
v 11.201820 -5.796480 6.070606
vt 0.308218 0.378488
vt 0.416531 0.342065
vt 0.425822 0.461124
vt 0.585044 0.754418
vt 0.486225 0.644655
vt 0.572108 0.587489
vt 0.430641 0.690547
vt 0.325577 0.840473
vt 0.344194 0.711321
vt 0.111876 0.399821
vt 0.119500 0.499338
vt 0.047799 0.485323
vt 0.325577 0.797616
vt 0.282493 0.780446
vt 0.306885 0.767915
vt 0.238129 0.335770
vt 0.160873 0.438503
vt 0.161768 0.275803
vt 0.000000 0.171601
vt 0.123166 0.100915
vt 0.002707 0.326483
vt 0.718922 0.248545
vt 0.785702 0.301694
vt 0.674997 0.328582
vt 0.773434 0.151142
vt 0.784077 0.252868
vt 0.103630 0.757349
vt 0.095791 0.606166
vt 0.209461 0.593967
vt 0.133502 0.530348
vt 0.261223 0.499338
vt 0.379313 0.299750
vt 0.479801 0.251361
vt 0.496623 0.773082
vt 0.603507 0.801317
vt 0.788962 0.797028
vt 0.677945 0.758164
vt 0.791389 0.699823
vt 0.689313 0.832237
vt 0.798432 0.868980
vt 0.613145 0.877272
vt 0.698171 0.907786
vt 0.862931 0.285089
vt 0.286666 0.610104
vt 0.325577 0.531726
vt 0.185275 0.770039
vt 0.862931 0.372225
vt 0.985189 0.494792
vt 0.933314 0.543163
vt 0.911234 0.483022
vt 0.265746 0.935522
vt 0.137879 0.942971
vt 0.664732 0.579504
vt 0.787461 0.612846
vt 0.585581 0.370191
vt 0.479801 0.401075
vt 0.511936 0.357453
vt 0.605595 1.000000
vt 0.692330 0.990951
vt 1.000000 0.559724
vt 0.927136 0.738768
vt 0.998051 0.745626
vt 0.914301 0.821781
vt 0.806742 0.407577
vt 0.798432 0.706516
vt 0.814173 0.620434
vt 0.587797 0.490480
vt 0.679655 0.483022
vt 0.422272 0.608357
vt 0.326851 0.690547
vt 0.325577 0.609333
vt 0.798432 0.517800
vt 0.333361 0.499338
vt 0.425061 0.499858
vt 0.488426 0.189654
vt 0.623075 0.251152
vt 0.487830 0.287251
vt 0.627596 0.139606
vt 0.369752 0.223161
vt 0.256834 0.225436
vt 0.345605 0.178517
vt 0.282295 0.304684
vt 0.304973 0.105928
vt 0.216981 0.076797
vt 0.498955 0.101748
vt 0.663741 0.000000
vt 0.723444 0.136999
vt 0.867398 0.000000
vt 0.951594 0.091204
vt 0.862931 0.091204
vt 0.173383 0.000000
vt 0.079364 0.024001
vt 0.328885 0.499338
vt 0.479801 0.726979
vt 0.430641 0.816303
vt 0.272299 0.396103
vt 0.000000 0.736281
vt 0.050031 0.916949
vt 0.502034 0.483022
vt 1.000000 0.834437
vt 0.600785 0.482088
vt 0.425061 0.687735
vt 0.572050 0.000877
vt 0.944124 0.024838
vn -0.3540 0.7381 -0.5743
vn -0.3431 0.7425 -0.5753
vn -0.0052 0.8221 -0.5694
vn 0.3078 0.5199 -0.7968
vn 0.3276 0.4983 -0.8027
vn 0.3938 0.4204 -0.8175
vn 0.7087 0.4066 0.5766
vn 0.8140 0.2831 0.5072
vn 0.5132 0.5653 0.6458
vn -0.4228 0.5526 0.7182
vn -0.4928 0.6035 0.6268
vn -0.5277 0.6272 0.5729
vn 0.3042 -0.7763 0.5522
vn 0.3948 -0.7534 0.5258
vn 0.5471 -0.6965 0.4643
vn -0.0311 0.9756 0.2174
vn -0.0072 0.9717 0.2361
vn 0.0097 0.9684 0.2492
vn -0.1573 0.9723 0.1728
vn -0.1434 0.9776 0.1543
vn -0.0966 0.9910 0.0922
vn -0.0935 0.9681 0.2324
vn -0.0911 0.9676 0.2354
vn -0.0873 0.9668 0.2403
vn -0.4489 -0.8431 0.2960
vn -0.4257 -0.8467 0.3192
vn -0.5092 -0.8288 0.2318
vn -0.0137 -0.8987 0.4383
vn 0.0041 -0.9115 0.4112
vn -0.0264 -0.8888 0.4575
vn 0.2498 0.0608 0.9664
vn 0.2504 0.0624 0.9661
vn 0.2508 0.0635 0.9659
vn -0.3250 0.4986 0.8036
vn -0.3363 0.4917 0.8032
vn -0.1445 0.5927 0.7924
vn -0.4243 0.6389 -0.6417
vn -0.4837 0.6039 -0.6335
vn -0.6354 0.4921 -0.5951
vn -0.0418 0.6907 -0.7219
vn -0.0400 0.6909 -0.7219
vn -0.0396 0.6909 -0.7219
vn -0.0036 -0.6926 -0.7213
vn 0.0299 -0.7006 -0.7129
vn -0.0349 -0.6843 -0.7284
vn 0.1432 -0.1035 -0.9843
vn 0.1096 -0.1227 -0.9864
vn 0.0493 -0.1564 -0.9865
vn -0.4010 -0.6341 -0.6611
vn -0.4824 -0.5852 -0.6518
vn -0.1509 -0.7409 -0.6545
vn -0.7070 0.2724 -0.6526
vn -0.7069 0.2725 -0.6527
vn -0.7073 0.2721 -0.6525
vn -0.0002 -0.7881 0.6156
vn -0.0091 -0.7899 0.6132
vn -0.0135 -0.7907 0.6120
vn -0.0968 -0.1428 0.9850
vn -0.0776 -0.1112 0.9908
vn -0.0434 -0.0551 0.9975
vn 0.3229 -0.3457 0.8810
vn 0.3050 -0.3400 0.8896
vn 0.2100 -0.3079 0.9279
vn 0.3141 -0.2804 0.9070
vn 0.3227 -0.2487 0.9132
vn 0.3257 -0.2370 0.9153
vn -0.5080 -0.8551 -0.1033
vn -0.3804 -0.9224 0.0665
vn -0.3411 -0.9331 0.1137
vn -0.8728 -0.2059 0.4425
vn -0.8721 -0.2073 0.4432
vn -0.8818 -0.1877 0.4327
vn 0.5097 -0.3089 0.8030
vn 0.4932 -0.3289 0.8053
vn 0.4761 -0.3491 0.8071
vn 0.6253 -0.0674 0.7775
vn 0.5589 -0.2301 0.7967
vn 0.5191 -0.3088 0.7970
vn 0.2879 -0.4317 -0.8548
vn 0.2726 -0.4133 -0.8688
vn 0.1355 -0.2447 -0.9601
vn 0.4186 -0.0691 -0.9055
vn 0.4331 -0.0323 -0.9008
vn 0.4115 -0.0866 -0.9073
vn -0.6781 -0.5615 -0.4742
vn -0.4148 -0.6605 -0.6259
vn -0.8769 -0.3995 -0.2672
vn -0.2086 0.0019 -0.9780
vn -0.2145 -0.0039 -0.9767
vn -0.1930 0.0171 -0.9811
vn -0.9295 -0.2327 0.2863
vn -0.9434 -0.1773 0.2802
vn -0.9248 -0.2486 0.2879
vn -0.9932 -0.0850 -0.0793
vn -0.9937 -0.0675 -0.0895
vn -0.9900 -0.1308 -0.0524
vn -0.5612 -0.8139 0.1507
vn -0.5589 -0.8150 0.1530
vn -0.4791 -0.8479 0.2268
vn -0.7074 -0.7068 0.0090
vn -0.6757 -0.7005 0.2295
vn -0.6508 -0.6866 0.3242
vn 0.6785 -0.0086 -0.7345
vn 0.6792 -0.0106 -0.7339
vn 0.6799 -0.0125 -0.7332
vn 1.0000 0.0057 0.0053
vn 1.0000 0.0055 0.0054
vn 1.0000 0.0028 0.0081
vn 0.5696 -0.3077 -0.7621
vn 0.5817 -0.2979 -0.7569
vn 0.5041 -0.3573 -0.7863
vn 0.9156 -0.4017 0.0159
vn 0.9164 -0.3998 0.0189
vn 0.9181 -0.3955 0.0256
vn -0.0151 -0.9622 -0.2721
vn 0.0093 -0.9661 -0.2581
vn -0.0814 -0.9477 -0.3088
vn 0.0575 -0.9983 0.0001
vn 0.0543 -0.9985 -0.0048
vn -0.1231 -0.9653 -0.2304
vn -0.1207 -0.9662 -0.2279
vn -0.0097 -0.9937 -0.1118
vn -0.3770 -0.9238 0.0669
vn -0.3592 -0.9278 0.1012
vn -0.3216 -0.9315 0.1700
vn -0.2603 0.9634 -0.0644
vn -0.2884 0.9559 -0.0564
vn -0.2218 0.9722 -0.0751
vn -0.1330 0.9879 0.0800
vn -0.1758 0.9786 0.1066
vn -0.3097 0.9317 0.1897
vn 0.0861 0.9950 -0.0511
vn 0.1034 0.9943 -0.0269
vn 0.0613 0.9944 -0.0856
vn -0.0389 0.9841 0.1731
vn 0.0165 0.9979 0.0621
vn 0.0647 0.9973 -0.0357
vn -0.1628 0.9866 0.0133
vn -0.1340 0.9910 0.0066
vn -0.1990 0.9798 0.0217
vn -0.0170 0.9790 -0.2031
vn -0.0580 0.9862 -0.1553
vn -0.0947 0.9892 -0.1117
vn 0.0008 -0.9803 -0.1975
vn 0.0020 -0.9800 -0.1989
vn -0.0025 -0.9800 -0.1988
vn 0.0615 -0.9981 -0.0058
vn 0.0579 -0.9983 -0.0019
vn 0.6331 0.5473 -0.5473
vn 0.6373 0.5449 -0.5449
vn 0.6085 0.5611 -0.5611
vn 0.7090 0.7050 -0.0178
vn 0.7084 0.7056 -0.0194
vn 0.7097 0.7043 -0.0161
vn -0.7718 0.5858 0.2474
vn -0.7540 0.6200 0.2172
vn -0.8172 0.4636 0.3424
vn -0.5716 0.8187 0.0554
vn -0.5803 0.7906 -0.1955
vn -0.5592 0.8159 0.1469
vn -0.7241 0.4992 -0.4758
vn 0.2041 0.6213 -0.7565
vn 0.9608 -0.0535 0.2719
vn -0.3702 0.5121 0.7751
vn 0.2359 -0.7869 0.5702
vn -0.0492 0.9779 0.2030
vn -0.2024 0.9512 0.2330
vn -0.0980 0.9691 0.2265
vn -0.3124 -0.8512 0.4217
vn 0.0195 -0.9211 0.3889
vn 0.2493 0.0595 0.9666
vn -0.5174 0.3634 0.7748
vn -0.2619 0.7149 -0.6483
vn -0.0423 0.6907 -0.7219
vn 0.0678 -0.7087 -0.7023
vn 0.2124 -0.0632 -0.9751
vn -0.6782 -0.4279 -0.5974
vn -0.7067 0.2728 -0.6529
vn 0.0044 -0.7872 0.6167
vn -0.1233 -0.1863 0.9747
vn 0.3374 -0.3502 0.8738
vn 0.3111 -0.2914 0.9046
vn -0.5296 -0.8374 -0.1353
vn -0.8626 -0.2255 0.4529
vn 0.5219 -0.2936 0.8008
vn 0.6492 0.0079 0.7605
vn 0.3579 -0.5156 -0.7785
vn 0.4402 -0.0135 -0.8978
vn -0.2453 -0.6869 -0.6841
vn -0.2257 -0.0149 -0.9741
vn -0.9471 -0.1603 0.2781
vn -0.9933 -0.0291 -0.1116
vn -0.6111 -0.7853 0.0994
vn -0.7102 -0.6979 -0.0922
vn 0.6778 -0.0066 -0.7352
vn 1.0000 0.0084 0.0026
vn 0.6387 -0.2489 -0.7281
vn 0.9139 -0.4057 0.0096
vn 0.0692 -0.9723 -0.2233
vn -0.1767 -0.9420 -0.2855
vn -0.4144 -0.9100 -0.0094
vn -0.3144 0.9480 -0.0489
vn 0.0667 0.9968 -0.0439
vn 0.1368 0.9904 0.0204
vn -0.0787 0.9645 0.2520
vn -0.0968 0.9953 -0.0020
vn 0.0300 0.9660 -0.2568
vn 0.0042 -0.9806 -0.1962
vn 0.0617 -0.9981 -0.0063
vn 0.6696 0.5252 -0.5252
vn 0.7077 0.7062 -0.0211
vn -0.6658 0.7404 0.0928
vn -0.5657 0.7443 -0.3550
usemtl Gray.001
s 1
f 36/1/1 19/2/2 56/3/3
f 31/4/4 8/5/5 21/6/6
f 40/7/7 23/8/8 52/9/9
f 16/10/10 18/11/11 27/12/12
f 48/13/13 5/14/14 14/15/15
f 44/16/16 2/17/17 16/10/18
f 42/18/19 6/19/20 40/20/21
f 42/18/22 16/10/23 15/21/24
f 46/22/25 1/23/26 34/24/27
f 46/22/28 14/25/29 13/26/30
f 23/27/31 15/28/32 25/29/33
f 25/29/34 16/30/35 27/31/36
f 4/32/37 29/33/38 19/2/39
f 11/34/40 31/4/41 29/35/42
f 10/36/43 32/37/44 9/38/45
f 29/35/46 32/37/47 30/39/48
f 3/40/49 30/39/50 10/36/51
f 19/41/52 30/39/53 20/42/54
f 26/43/55 13/26/56 14/25/57
f 26/44/58 27/31/59 28/45/60
f 24/46/61 14/15/62 5/14/63
f 24/46/64 25/29/65 26/44/66
f 28/47/67 1/23/68 13/26/69
f 27/48/70 17/49/71 28/50/72
f 37/51/73 24/46/74 5/14/75
f 50/52/76 23/27/77 24/46/78
f 9/38/79 22/53/80 7/54/81
f 31/4/82 22/53/83 32/37/84
f 33/55/85 20/56/86 3/57/87
f 56/58/88 20/42/89 54/59/90
f 18/60/91 53/61/92 17/49/93
f 55/62/94 54/63/95 53/61/96
f 17/64/97 34/24/98 1/23/99
f 53/61/100 33/65/101 34/66/102
f 22/53/103 51/67/104 49/68/105
f 49/69/106 52/70/107 50/71/108
f 22/53/109 38/72/110 7/54/111
f 49/69/112 37/73/113 38/74/114
f 9/75/115 45/76/116 10/77/117
f 47/78/118 46/22/119 45/76/119
f 10/77/120 33/55/121 3/57/122
f 45/76/123 34/24/124 33/55/125
f 11/79/126 41/80/127 12/81/128
f 43/82/129 42/18/130 41/80/131
f 8/83/132 41/80/133 39/84/134
f 41/80/135 40/20/136 39/84/137
f 4/32/138 43/82/139 11/79/140
f 36/1/141 44/16/142 43/82/143
f 7/85/144 47/78/145 9/75/146
f 47/78/118 37/86/147 48/87/148
f 21/88/149 39/89/150 51/90/151
f 51/91/152 40/20/153 52/92/154
f 2/17/155 55/93/156 18/11/157
f 55/93/158 36/1/159 56/3/160
f 36/1/1 4/32/161 19/2/2
f 31/4/4 12/94/162 8/5/5
f 40/7/7 6/95/163 23/8/8
f 16/10/10 2/17/164 18/11/11
f 48/13/13 37/51/165 5/14/14
f 44/16/16 35/96/166 2/17/17
f 42/18/19 15/21/167 6/19/20
f 42/18/22 44/16/168 16/10/23
f 46/22/25 13/26/169 1/23/26
f 46/22/28 48/87/170 14/25/29
f 23/27/31 6/97/171 15/28/32
f 25/29/34 15/28/172 16/30/35
f 4/32/37 11/79/173 29/33/38
f 11/34/40 12/94/174 31/4/41
f 10/36/43 30/39/175 32/37/44
f 29/35/46 31/4/176 32/37/47
f 3/40/49 20/42/177 30/39/50
f 19/41/52 29/35/178 30/39/53
f 26/43/55 28/47/179 13/26/56
f 26/44/58 25/29/180 27/31/59
f 24/46/61 26/44/181 14/15/62
f 24/46/64 23/27/182 25/29/65
f 28/47/67 17/64/183 1/23/68
f 27/48/70 18/60/184 17/49/71
f 37/51/73 50/52/185 24/46/74
f 50/52/76 52/98/186 23/27/77
f 9/38/79 32/37/187 22/53/80
f 31/4/82 21/6/188 22/53/83
f 33/55/85 54/99/189 20/56/86
f 56/58/88 19/41/190 20/42/89
f 18/60/91 55/62/191 53/61/92
f 55/62/94 56/100/192 54/63/95
f 17/64/97 53/101/193 34/24/98
f 53/61/100 54/63/194 33/65/101
f 22/53/103 21/6/195 51/67/104
f 49/69/106 51/102/196 52/70/107
f 22/53/109 49/68/197 38/72/110
f 49/69/112 50/71/198 37/73/113
f 9/75/115 47/78/199 45/76/116
f 47/78/118 48/87/148 46/22/119
f 10/77/120 45/76/200 33/55/121
f 45/76/123 46/22/201 34/24/124
f 11/79/126 43/82/202 41/80/127
f 43/82/129 44/16/203 42/18/130
f 8/83/132 12/81/204 41/80/133
f 41/80/135 42/18/205 40/20/136
f 4/32/138 36/1/206 43/82/139
f 36/1/141 35/96/207 44/16/142
f 7/85/144 38/103/208 47/78/145
f 47/78/118 38/103/209 37/86/147
f 21/88/149 8/104/210 39/89/150
f 51/91/152 39/84/211 40/20/153
f 2/17/155 35/96/212 55/93/156
f 55/93/158 35/96/213 36/1/159
