# Blender v2.82 (sub 7) OBJ File: 'untitled.blend'
# www.blender.org
mtllib rock3.mtl
o Rock_3_Cube.012
v -2.586401 19.689281 -9.363477
v -2.248192 21.003942 -9.091168
v -2.283895 19.791737 -11.263999
v -2.261263 20.862213 -11.336313
v 0.579222 19.995342 -8.363976
v 1.566893 22.052608 -9.012343
v 1.329555 20.520514 -11.722136
v 1.163710 21.992298 -11.341887
v 0.198956 20.007290 -11.962322
v -0.138946 21.552725 -11.822042
v -0.652102 19.667652 -8.597294
v 0.076154 21.575838 -8.336522
v -2.417245 20.355711 -9.255997
v -2.233143 20.340813 -11.341592
v 1.328324 21.286190 -11.676050
v 1.026734 21.047640 -8.579122
v -0.233660 20.647682 -8.149150
v 0.189751 20.818172 -12.056758
v -2.459310 19.731594 -10.340780
v -2.261246 20.949816 -10.333113
v 1.211179 20.430820 -10.442791
v 1.893949 22.141905 -10.315262
v 0.268241 21.709198 -10.399393
v -0.170127 19.864283 -10.411398
v 1.625951 21.310352 -10.407199
v -2.351859 20.354315 -10.364946
vt 0.322398 0.680954
vt 0.392250 0.796890
vt 0.319231 0.796890
vt 0.224979 0.843658
vt 0.123546 0.995835
vt 0.110135 0.855669
vt 0.849637 0.665635
vt 0.711104 0.529474
vt 0.850352 0.469884
vt 0.586149 0.647387
vt 0.711104 0.885964
vt 0.628192 0.928967
vt 0.733857 0.261709
vt 0.466479 0.393994
vt 0.465482 0.241461
vt 0.175041 0.333131
vt 0.465482 0.085627
vt 0.465482 0.381389
vt 0.306214 0.533411
vt 0.114226 0.525286
vt 0.667410 0.000000
vt 0.526822 0.005627
vt 0.593346 0.508623
vt 0.702142 0.590526
vt 0.155461 0.560201
vt 0.000000 0.825704
vt 0.083466 0.533411
vt 0.465482 0.583631
vt 0.466887 0.736096
vt 0.542799 0.970883
vt 0.981224 0.658459
vt 1.000000 0.431103
vt 0.019570 0.968159
vt 0.240951 0.786318
vt 0.232312 0.675969
vt 0.227425 0.559776
vt 0.892518 0.815210
vt 1.000000 0.801055
vt 0.801804 0.001442
vt 0.006348 0.405297
vt 0.000000 0.233715
vt 0.297558 0.038406
vt 0.961946 0.273556
vt 0.778618 0.431103
vt 0.789093 0.799886
vt 0.325501 0.549979
vt 0.408501 0.679143
vt 0.227425 1.000000
vt 0.726253 0.669174
vt 0.711104 0.431103
vt 0.227425 0.576286
vt 0.162013 0.000000
vt 0.961946 0.419075
vt 0.421228 0.533411
vn -0.9949 0.0899 -0.0458
vn -0.9963 0.0173 -0.0839
vn -0.9914 -0.0523 -0.1198
vn 0.1618 0.3953 -0.9042
vn 0.1658 0.4251 -0.8898
vn 0.1574 0.3638 -0.9181
vn 0.9125 -0.3438 0.2216
vn 0.9031 -0.3620 0.2309
vn 0.8945 -0.3778 0.2389
vn -0.3758 0.2409 0.8948
vn -0.4284 -0.0353 0.9029
vn -0.4372 -0.1129 0.8923
vn 0.3391 -0.9386 -0.0640
vn 0.3093 -0.9495 -0.0524
vn 0.2631 -0.9641 -0.0346
vn -0.2656 0.9640 0.0163
vn -0.2733 0.9619 -0.0071
vn -0.2507 0.9673 0.0392
vn -0.2745 0.9613 0.0229
vn -0.2751 0.9612 0.0196
vn -0.2607 0.9654 0.0019
vn 0.0284 -0.9974 -0.0660
vn 0.0416 -0.9960 -0.0796
vn 0.0057 -0.9991 -0.0425
vn 0.3315 0.1703 0.9280
vn 0.3144 0.1343 0.9397
vn 0.2947 0.0936 0.9510
vn -0.2430 0.0356 -0.9694
vn -0.2988 0.1423 -0.9436
vn -0.3085 0.1615 -0.9374
vn -0.2601 -0.1120 -0.9591
vn -0.2604 -0.1142 -0.9587
vn -0.2601 -0.1115 -0.9591
vn 0.1501 -0.1354 0.9793
vn 0.0962 -0.2011 0.9748
vn -0.0702 -0.3899 0.9182
vn -0.4094 -0.1977 0.8907
vn -0.3811 -0.0974 0.9194
vn -0.3682 -0.0562 0.9280
vn 0.8893 -0.4005 0.2206
vn 0.9062 -0.3664 0.2110
vn 0.9150 -0.3471 0.2055
vn 0.2680 -0.0550 -0.9618
vn 0.2823 0.0024 -0.9593
vn 0.2537 -0.1091 -0.9611
vn -0.9788 0.1318 -0.1565
vn -0.9846 0.1049 -0.1401
vn -0.9715 0.1609 -0.1741
vn -0.9712 0.2252 -0.0779
vn -0.9752 0.1998 -0.0957
vn -0.9791 0.1643 -0.1202
vn 0.9844 -0.1737 -0.0270
vn 0.9543 -0.2802 -0.1037
vn 0.9958 -0.0039 0.0919
vn 0.0590 -0.9964 -0.0614
vn 0.0629 -0.9955 -0.0713
vn 0.0561 -0.9969 -0.0543
vn -0.2841 0.9586 0.0180
vn -0.2876 0.9577 0.0102
vn -0.2613 0.9644 0.0410
vn -0.2967 0.9543 -0.0366
vn -0.3120 0.9481 -0.0608
vn -0.2896 0.9568 -0.0258
vn 0.3973 -0.9176 -0.0089
vn 0.3962 -0.9181 -0.0080
vn 0.3796 -0.9252 0.0050
vn 0.9247 0.1437 -0.3524
vn 0.8886 -0.0255 -0.4581
vn 0.9211 0.3199 -0.2221
vn -0.9742 0.2249 -0.0171
vn -0.9816 0.1870 -0.0390
vn -0.9865 0.1532 -0.0584
vn -0.9884 0.1511 -0.0132
vn 0.1695 0.4536 -0.8750
vn 0.9226 -0.3216 0.2132
vn -0.3604 0.2987 0.8837
vn 0.3768 -0.9230 -0.0788
vn -0.2882 0.9568 -0.0387
vn -0.2901 0.9564 0.0348
vn 0.0547 -0.9941 -0.0932
vn 0.3483 0.2069 0.9143
vn -0.2224 -0.0021 -0.9749
vn -0.2604 -0.1146 -0.9587
vn 0.3036 0.0652 0.9506
vn -0.4164 -0.2250 0.8809
vn 0.8773 -0.4229 0.2268
vn 0.2951 0.0579 -0.9537
vn -0.9898 0.0743 -0.1213
vn -0.9654 0.2543 -0.0572
vn 0.8892 -0.4112 -0.2007
vn 0.0649 -0.9950 -0.0763
vn -0.3150 0.9490 -0.0142
vn -0.3253 0.9420 -0.0823
vn 0.4176 -0.9083 -0.0250
vn 0.8106 -0.2043 -0.5489
vn -0.9676 0.2525 -0.0008
usemtl Gray.3
s 1
f 26/1/1 4/2/2 14/3/3
f 10/4/4 15/5/5 18/6/6
f 25/7/7 6/8/8 16/9/9
f 17/10/10 2/11/11 13/12/12
f 24/13/13 5/14/14 11/15/15
f 23/16/16 2/17/17 12/18/18
f 23/16/19 6/19/20 22/20/21
f 19/21/22 11/15/23 1/22/24
f 16/23/25 12/24/26 17/10/27
f 14/25/28 10/4/29 18/6/30
f 14/25/31 9/26/32 3/27/33
f 5/28/34 17/10/35 11/29/36
f 11/29/37 13/12/38 1/30/39
f 21/31/40 16/9/41 5/32/42
f 18/6/43 7/33/44 9/26/45
f 26/1/46 3/34/47 19/35/48
f 1/36/49 26/1/50 19/35/51
f 15/37/52 21/31/53 7/38/54
f 3/39/55 24/13/56 19/21/57
f 8/40/58 23/16/59 22/20/60
f 10/41/61 20/42/62 23/16/63
f 9/43/64 21/44/65 24/13/66
f 8/45/67 25/7/68 15/37/69
f 13/46/70 20/47/71 26/1/72
f 26/1/1 20/47/73 4/2/2
f 10/4/4 8/48/74 15/5/5
f 25/7/7 22/49/75 6/8/8
f 17/10/10 12/24/76 2/11/11
f 24/13/13 21/44/77 5/14/14
f 23/16/16 20/42/78 2/17/17
f 23/16/19 12/18/79 6/19/20
f 19/21/22 24/13/80 11/15/23
f 16/23/25 6/50/81 12/24/26
f 14/25/28 4/51/82 10/4/29
f 14/25/31 18/6/83 9/26/32
f 5/28/34 16/23/84 17/10/35
f 11/29/37 17/10/85 13/12/38
f 21/31/40 25/7/86 16/9/41
f 18/6/43 15/5/87 7/33/44
f 26/1/46 14/3/88 3/34/47
f 1/36/49 13/46/89 26/1/50
f 15/37/52 25/7/90 21/31/53
f 3/39/55 9/43/91 24/13/56
f 8/40/58 10/41/92 23/16/59
f 10/41/61 4/52/93 20/42/62
f 9/43/64 7/53/94 21/44/65
f 8/45/67 22/49/95 25/7/68
f 13/46/70 2/54/96 20/47/71
