# Blender v2.82 (sub 7) OBJ File: 'untitled.blend'
# www.blender.org
mtllib rock5.mtl
o Rock_5_Sphere
v 3.651125 1.320305 6.352361
v 3.641868 1.306244 6.802943
v 4.001180 1.341177 6.362689
v 4.162124 1.256509 6.039346
v 4.226481 1.054390 5.829041
v 4.220041 0.771136 5.744485
v 4.132026 0.482763 5.792803
v 3.939815 0.283565 5.961908
v 3.622670 0.243352 6.227287
v 4.139463 1.348185 6.612096
v 4.432676 1.282080 6.492216
v 4.588623 1.090085 6.409221
v 4.615003 0.804673 6.360229
v 4.492518 0.498131 6.359007
v 4.201814 0.268135 6.409231
v 3.734681 0.234085 6.485016
v 3.977437 1.304454 6.961152
v 4.187365 1.227649 7.081709
v 4.287121 1.053723 7.142525
v 4.267179 0.808452 7.140633
v 4.109835 0.550595 7.089337
v 3.836330 0.360557 6.983555
v 3.501454 0.284516 6.804614
v 3.550647 1.231016 7.215963
v 3.411580 1.118366 7.517644
v 3.246974 0.940700 7.695166
v 3.093350 0.695856 7.740424
v 3.010689 0.438459 7.630656
v 3.016563 0.269493 7.370427
v 3.078346 0.241931 6.998588
v 3.090068 1.222369 7.171963
v 2.570401 1.153506 7.369833
v 2.176296 1.007458 7.480542
v 1.936688 0.758979 7.533360
v 1.919645 0.444277 7.478974
v 2.232072 0.182404 7.230860
v 2.707320 0.179612 6.920597
v 3.177728 0.275417 6.575097
v 2.947327 1.257182 6.896307
v 2.349351 1.196995 6.821811
v 1.960949 1.036935 6.724349
v 1.776400 0.773995 6.676974
v 1.813126 0.478581 6.672513
v 2.134242 0.249915 6.662294
v 2.639879 0.225428 6.637382
v 3.213687 1.299735 6.578449
v 2.849538 1.246032 6.304323
v 2.623204 1.105626 6.074396
v 2.518304 0.892420 5.964134
v 2.528600 0.653652 5.990501
v 2.664433 0.450867 6.127920
v 2.892971 0.326622 6.336160
v 3.575873 1.237392 5.967246
v 3.472704 1.065846 5.705653
v 3.403029 0.833233 5.593571
v 3.370159 0.592519 5.642351
v 3.342535 0.405895 5.841235
v 3.279498 0.314411 6.167009
vt 0.125566 0.277066
vt 0.193340 0.323304
vt 0.143967 0.377562
vt 0.315340 0.380701
vt 0.168826 0.451749
vt 0.257315 0.358353
vt 0.168145 0.553137
vt 0.067789 0.631448
vt 0.115427 0.525983
vt 0.503052 0.873367
vt 0.597860 0.934022
vt 0.525747 0.973211
vt 0.354263 0.394979
vt 0.209458 0.501076
vt 0.457770 0.983956
vt 0.427773 0.858945
vt 0.730505 0.176998
vt 0.638569 0.179476
vt 0.730954 0.111097
vt 0.088347 0.379457
vt 0.000000 0.753881
vt 0.004829 0.627419
vt 0.187262 0.677391
vt 0.134719 0.777429
vt 0.134700 0.648375
vt 0.681898 0.085476
vt 0.066654 0.466847
vt 0.066340 0.769437
vt 0.618934 1.000000
vt 0.801513 0.028421
vt 0.950730 0.135196
vt 0.886473 0.162128
vt 0.697251 0.029897
vt 0.537906 0.057979
vt 0.689124 0.000000
vt 0.606533 0.116511
vt 0.059452 0.318216
vt 0.749434 0.085552
vt 0.823331 0.198940
vt 0.928379 0.000063
vt 0.867409 0.000000
vt 0.572454 0.077010
vt 0.730954 0.166107
vt 0.770515 0.233805
vt 0.055669 0.230321
vt 0.882519 0.390877
vt 0.816798 0.368011
vt 1.000000 0.345437
vt 0.950650 0.381539
vt 0.546331 0.197217
vt 0.471582 0.223712
vt 0.000000 0.194964
vt 0.413332 0.254683
vt 0.372909 0.283230
vt 0.465344 0.456191
vt 0.422981 0.500945
vt 0.554240 0.283910
vt 0.506059 0.382028
vt 0.092078 0.169499
vt 0.884003 0.534772
vt 0.814620 0.541724
vt 0.746220 0.476185
vt 0.195287 0.088513
vt 0.153401 0.177903
vt 0.318918 0.681890
vt 0.248432 0.525983
vt 0.318918 0.528525
vt 0.621374 0.422837
vt 0.620499 0.495546
vt 0.613919 0.310407
vt 0.078739 0.065620
vt 0.252274 0.036761
vt 0.243799 0.690090
vt 0.187262 0.538290
vt 0.648074 0.616139
vt 0.494995 0.695061
vt 0.602826 0.544654
vt 0.682843 0.259764
vt 0.198340 0.244666
vt 0.334497 0.211602
vt 0.271088 0.221588
vt 0.442831 0.670881
vt 0.554881 0.500945
vt 0.730954 0.327811
vt 0.295378 0.036480
vt 0.372909 0.839982
vt 0.625034 0.784055
vt 0.561139 0.730867
vt 0.372909 0.216788
vt 0.589248 0.872336
vt 0.250206 0.525983
vt 0.187262 0.776885
vt 0.082503 0.525983
vt 0.648074 0.946534
vt 1.000000 0.124499
vt 0.010432 0.366194
vt 0.098174 0.000000
vt 0.187720 0.685532
vn -0.1776 -0.9745 -0.1374
vn 0.0069 -0.7128 -0.7014
vn 0.0369 -0.6848 -0.7278
vn -0.0108 -0.7284 -0.6850
vn 0.1888 0.3582 -0.9143
vn 0.1670 0.2998 -0.9393
vn 0.1959 0.3774 -0.9051
vn -0.0260 0.9734 -0.2275
vn -0.0194 0.9720 -0.2342
vn -0.0004 0.9673 -0.2535
vn -0.1386 -0.9447 -0.2972
vn -0.1364 -0.9445 -0.2987
vn -0.1442 -0.9451 -0.2933
vn 0.1597 -0.2155 -0.9634
vn 0.1615 -0.2120 -0.9638
vn 0.1590 -0.2169 -0.9632
vn 0.0963 0.7948 -0.5991
vn 0.0743 0.7557 -0.6507
vn 0.1063 0.8117 -0.5743
vn -0.0604 0.9977 0.0299
vn 0.0645 -0.9955 -0.0689
vn 0.0652 -0.9955 -0.0686
vn 0.0706 -0.9953 -0.0665
vn 0.8021 -0.3260 -0.5004
vn 0.8042 -0.3219 -0.4996
vn 0.8008 -0.3283 -0.5009
vn 0.6247 0.6544 -0.4259
vn 0.6190 0.6678 -0.4133
vn 0.6272 0.6485 -0.4314
vn -0.0781 0.9968 0.0153
vn -0.0746 -0.9972 -0.0034
vn 0.5328 -0.7786 -0.3314
vn 0.5423 -0.7725 -0.3304
vn 0.5216 -0.7857 -0.3326
vn 0.8301 0.1480 -0.5376
vn 0.8312 0.1616 -0.5320
vn 0.8296 0.1423 -0.5399
vn 0.1778 0.9728 -0.1484
vn 0.1766 0.9737 -0.1440
vn 0.1818 0.9697 -0.1634
vn 0.8345 -0.3856 0.3937
vn 0.7664 -0.4899 0.4155
vn 0.7338 -0.5319 0.4227
vn 0.7887 0.5032 0.3532
vn 0.7592 0.5420 0.3603
vn 0.7953 0.4940 0.3515
vn -0.0438 0.9936 0.1041
vn -0.0547 -0.9917 0.1165
vn 0.5700 -0.7287 0.3797
vn 0.4752 -0.7880 0.3915
vn 0.4156 -0.8187 0.3962
vn 0.9157 -0.0013 0.4019
vn 0.9219 -0.0575 0.3830
vn 0.9133 0.0146 0.4070
vn 0.2783 0.9368 0.2121
vn 0.2478 0.9442 0.2171
vn 0.2956 0.9321 0.2091
vn 0.1043 -0.9689 0.2245
vn 0.1030 -0.9689 0.2248
vn 0.0995 -0.9691 0.2256
vn 0.0718 -0.9955 -0.0619
vn 0.3379 -0.7811 0.5251
vn 0.3337 -0.7860 0.5204
vn 0.3324 -0.7876 0.5189
vn 0.4714 -0.0547 0.8802
vn 0.4622 -0.1193 0.8787
vn 0.4610 -0.1269 0.8783
vn 0.0904 0.9094 0.4059
vn 0.0866 0.9177 0.3876
vn 0.0856 0.9198 0.3829
vn 0.1586 -0.9812 0.1098
vn 0.1517 -0.9829 0.1039
vn 0.1435 -0.9849 0.0969
vn 0.4418 -0.4321 0.7862
vn 0.4305 -0.4622 0.7753
vn 0.4285 -0.4674 0.7733
vn 0.3744 0.4851 0.7903
vn 0.3785 0.4575 0.8046
vn 0.3789 0.4544 0.8062
vn -0.0718 0.9840 0.1634
vn -0.1684 0.2902 0.9420
vn -0.1506 0.3330 0.9308
vn -0.1477 0.3399 0.9288
vn -0.0357 0.9473 0.3182
vn -0.0230 0.9512 0.3076
vn -0.0127 0.9542 0.2989
vn 0.1146 -0.9863 0.1183
vn 0.1042 -0.9866 0.1255
vn 0.1450 -0.9847 0.0971
vn -0.1770 -0.3097 0.9342
vn -0.1444 -0.1890 0.9713
vn -0.1367 -0.1615 0.9774
vn -0.0859 0.7425 0.6644
vn -0.0871 0.7410 0.6659
vn -0.0874 0.7407 0.6662
vn -0.0349 0.9845 0.1716
vn 0.1731 -0.9842 -0.0372
vn -0.0313 -0.8129 0.5816
vn -0.0812 -0.7599 0.6449
vn -0.0038 -0.8387 0.5445
vn -0.0652 -0.9900 -0.1248
vn -0.0680 -0.9906 -0.1187
vn -0.0551 -0.9877 -0.1467
vn -0.9850 -0.0081 0.1726
vn -0.9862 -0.0899 0.1392
vn -0.9844 -0.1243 0.1247
vn -0.3363 0.9248 0.1778
vn -0.3735 0.9129 0.1646
vn -0.4089 0.8999 0.1515
vn -0.0495 0.9874 0.1504
vn 0.0709 -0.9819 -0.1757
vn -0.6082 -0.7930 0.0357
vn -0.5965 -0.8023 0.0220
vn -0.5800 -0.8146 0.0031
vn -0.7164 0.6662 0.2074
vn -0.7920 0.5843 0.1770
vn -0.8211 0.5469 0.1633
vn -0.0996 0.9856 0.1366
vn -0.0908 0.9855 0.1435
vn -0.1147 0.9856 0.1245
vn -0.3231 0.9179 -0.2306
vn -0.3278 0.9158 -0.2320
vn -0.3209 0.9188 -0.2299
vn -0.0590 0.9947 0.0837
vn 0.0575 -0.9600 -0.2742
vn -0.4465 -0.6267 -0.6387
vn -0.4001 -0.6627 -0.6331
vn -0.3771 -0.6793 -0.6296
vn -0.6225 0.5464 -0.5603
vn -0.6054 0.5727 -0.5527
vn -0.6261 0.5407 -0.5618
vn -0.1203 0.9927 0.0012
vn -0.1227 0.9924 0.0016
vn -0.0999 0.9950 -0.0022
vn -0.0803 -0.9101 -0.4066
vn -0.0950 -0.9086 -0.4067
vn -0.1218 -0.9055 -0.4065
vn -0.6788 -0.0787 -0.7301
vn -0.6795 -0.1035 -0.7264
vn -0.6787 -0.0733 -0.7308
vn -0.0816 -0.9900 -0.1149
vn -0.3262 -0.6693 -0.6676
vn -0.3259 -0.6671 -0.6699
vn -0.3263 -0.6702 -0.6666
vn -0.2976 0.5390 -0.7880
vn -0.3220 0.4986 -0.8048
vn -0.2915 0.5487 -0.7836
vn -0.0744 0.9867 -0.1447
vn -0.0986 0.9824 -0.1586
vn -0.0484 0.9904 -0.1297
vn -0.1847 -0.9264 -0.3281
vn -0.1870 -0.9318 -0.3111
vn -0.1818 -0.9193 -0.3490
vn -0.3875 -0.1200 -0.9140
vn -0.3899 -0.1293 -0.9117
vn -0.3869 -0.1177 -0.9146
vn -0.1526 0.8912 -0.4271
vn -0.1925 0.8663 -0.4611
vn -0.1376 0.8998 -0.4140
vn -0.0312 0.9990 0.0305
vn 0.0487 -0.6733 -0.7378
vn 0.1593 0.2791 -0.9470
vn -0.0524 0.9783 -0.2004
vn -0.1325 -0.9442 -0.3014
vn 0.1620 -0.2110 -0.9640
vn 0.0601 0.7288 -0.6821
vn 0.0612 -0.9957 -0.0702
vn 0.8053 -0.3198 -0.4992
vn 0.6156 0.6755 -0.4059
vn 0.5502 -0.7673 -0.3295
vn 0.8316 0.1677 -0.5294
vn 0.1705 0.9778 -0.1220
vn 0.8570 -0.3440 0.3836
vn 0.7480 0.5558 0.3626
vn 0.6146 -0.6956 0.3720
vn 0.9234 -0.0780 0.3758
vn 0.2204 0.9500 0.2213
vn 0.1069 -0.9687 0.2239
vn 0.3386 -0.7802 0.5260
vn 0.4725 -0.0452 0.8801
vn 0.0924 0.9049 0.4156
vn 0.1622 -0.9803 0.1130
vn 0.4435 -0.4274 0.7878
vn 0.3737 0.4898 0.7877
vn -0.1716 0.2822 0.9439
vn -0.0492 0.9429 0.3294
vn 0.0848 -0.9867 0.1388
vn -0.1837 -0.3351 0.9241
vn -0.0856 0.7428 0.6640
vn -0.0961 -0.7426 0.6628
vn -0.0743 -0.9917 -0.1050
vn -0.9826 0.0214 0.1843
vn -0.2930 0.9365 0.1925
vn -0.6188 -0.7841 0.0484
vn -0.6783 0.7009 0.2205
vn -0.0694 0.9846 0.1603
vn -0.3307 0.9145 -0.2330
vn -0.4592 -0.6162 -0.6399
vn -0.6004 0.5801 -0.5505
vn -0.1505 0.9886 0.0062
vn -0.0642 -0.9114 -0.4064
vn -0.6795 -0.1094 -0.7254
vn -0.3258 -0.6664 -0.6706
vn -0.3282 0.4880 -0.8088
vn -0.1399 0.9733 -0.1822
vn -0.1885 -0.9354 -0.2992
vn -0.3904 -0.1313 -0.9112
vn -0.2110 0.8535 -0.4765
usemtl Gray.1
s 1
f 38/1/1 58/2/1 9/3/1
f 56/4/2 8/5/3 57/6/4
f 54/7/5 6/8/6 55/9/7
f 53/10/8 3/11/9 4/12/10
f 57/6/11 9/3/12 58/2/13
f 55/13/14 7/14/15 56/4/16
f 53/10/17 5/15/18 54/16/19
f 1/17/20 2/18/20 3/19/20
f 8/5/21 16/20/22 9/3/23
f 6/8/24 14/21/25 7/22/26
f 4/23/27 12/24/28 5/25/29
f 3/19/30 2/18/30 10/26/30
f 38/1/31 9/3/31 16/20/31
f 7/14/32 15/27/33 8/5/34
f 5/25/35 13/28/36 6/8/37
f 3/11/38 11/29/39 4/12/40
f 14/30/41 20/31/42 21/32/43
f 11/33/44 19/34/45 12/35/46
f 10/26/47 2/18/47 17/36/47
f 38/1/48 16/20/48 23/37/48
f 15/38/49 21/32/50 22/39/51
f 12/40/52 20/31/53 13/41/54
f 10/26/55 18/42/56 11/33/57
f 16/43/58 22/39/59 23/44/60
f 38/1/61 23/37/61 30/45/61
f 22/39/62 28/46/63 29/47/64
f 20/31/65 26/48/66 27/49/67
f 18/42/68 24/50/69 25/51/70
f 23/37/71 29/52/72 30/45/73
f 21/32/74 27/49/75 28/46/76
f 19/34/77 25/51/78 26/53/79
f 17/36/80 2/18/80 24/50/80
f 27/54/81 33/55/82 34/56/83
f 25/51/84 31/57/85 32/58/86
f 29/52/87 37/59/88 30/45/89
f 28/46/90 34/60/91 35/61/92
f 26/53/93 32/58/94 33/55/95
f 24/50/96 2/18/96 31/57/96
f 38/1/97 30/45/97 37/59/97
f 28/46/98 36/62/99 29/47/100
f 37/59/101 44/63/102 45/64/103
f 35/65/104 42/66/105 43/67/106
f 33/55/107 40/68/108 41/69/109
f 31/57/110 2/18/110 39/70/110
f 38/1/111 37/59/111 45/64/111
f 36/71/112 43/72/113 44/63/114
f 34/73/115 41/74/116 42/66/117
f 32/58/118 39/70/119 40/68/120
f 40/75/121 48/76/122 41/77/123
f 39/70/124 2/18/124 46/78/124
f 38/1/125 45/64/125 52/79/125
f 44/63/126 50/80/127 51/81/128
f 41/77/129 49/82/130 42/83/131
f 39/70/132 47/84/133 40/68/134
f 45/64/135 51/81/136 52/79/137
f 42/85/138 50/80/139 43/72/140
f 38/1/141 52/79/141 58/2/141
f 50/80/142 57/6/143 51/81/144
f 48/76/145 55/86/146 49/82/147
f 46/87/148 53/10/149 47/88/150
f 51/81/151 58/2/152 52/79/153
f 49/89/154 56/4/155 50/80/156
f 47/88/157 54/16/158 48/76/159
f 46/78/160 2/18/160 1/17/160
f 56/4/2 7/14/161 8/5/3
f 54/7/5 5/25/162 6/8/6
f 53/10/8 1/90/163 3/11/9
f 57/6/11 8/5/164 9/3/12
f 55/13/14 6/91/165 7/14/15
f 53/10/17 4/12/166 5/15/18
f 8/5/21 15/27/167 16/20/22
f 6/8/24 13/28/168 14/21/25
f 4/23/27 11/92/169 12/24/28
f 7/14/32 14/93/170 15/27/33
f 5/25/35 12/24/171 13/28/36
f 3/11/38 10/94/172 11/29/39
f 14/30/41 13/41/173 20/31/42
f 11/33/44 18/42/174 19/34/45
f 15/38/49 14/30/175 21/32/50
f 12/40/52 19/95/176 20/31/53
f 10/26/55 17/36/177 18/42/56
f 16/43/58 15/38/178 22/39/59
f 22/39/62 21/32/179 28/46/63
f 20/31/65 19/95/180 26/48/66
f 18/42/68 17/36/181 24/50/69
f 23/37/71 22/96/182 29/52/72
f 21/32/74 20/31/183 27/49/75
f 19/34/77 18/42/184 25/51/78
f 27/54/81 26/53/185 33/55/82
f 25/51/84 24/50/186 31/57/85
f 29/52/87 36/71/187 37/59/88
f 28/46/90 27/49/188 34/60/91
f 26/53/93 25/51/189 32/58/94
f 28/46/98 35/61/190 36/62/99
f 37/59/101 36/71/191 44/63/102
f 35/65/104 34/73/192 42/66/105
f 33/55/107 32/58/193 40/68/108
f 36/71/112 35/97/194 43/72/113
f 34/73/115 33/98/195 41/74/116
f 32/58/118 31/57/196 39/70/119
f 40/75/121 47/88/197 48/76/122
f 44/63/126 43/72/198 50/80/127
f 41/77/129 48/76/199 49/82/130
f 39/70/132 46/78/200 47/84/133
f 45/64/135 44/63/201 51/81/136
f 42/85/138 49/89/202 50/80/139
f 50/80/142 56/4/203 57/6/143
f 48/76/145 54/16/204 55/86/146
f 46/87/148 1/90/205 53/10/149
f 51/81/151 57/6/206 58/2/152
f 49/89/154 55/13/207 56/4/155
f 47/88/157 53/10/208 54/16/158
